<?xml version="1.0" encoding="UTF-8"?>
<svg xmlns="http://www.w3.org/2000/svg" xmlns:xlink="http://www.w3.org/1999/xlink" width="70px" height="70px" viewBox="0 0 70 70" version="1.1">
<g id="surface1">
<path style=" stroke:none;fill-rule:nonzero;fill:rgb(0%,0%,0%);fill-opacity:1;" d="M 22.484375 32.375 C 20.753906 31.878906 19.023438 31.625 17.339844 31.625 C 14.742188 31.625 12.570312 32.21875 10.890625 32.945312 C 12.511719 27.011719 16.40625 16.773438 24.164062 15.617188 C 24.882812 15.511719 25.46875 14.992188 25.667969 14.292969 L 27.363281 8.230469 C 27.503906 7.714844 27.421875 7.167969 27.128906 6.722656 C 26.835938 6.277344 26.363281 5.980469 25.839844 5.90625 C 25.265625 5.828125 24.683594 5.789062 24.105469 5.789062 C 14.792969 5.789062 5.570312 15.507812 1.679688 29.425781 C -0.605469 37.589844 -1.273438 49.863281 4.351562 57.589844 C 7.5 61.914062 12.09375 64.222656 18.003906 64.453125 C 18.027344 64.453125 18.050781 64.453125 18.078125 64.453125 C 25.371094 64.453125 31.835938 59.542969 33.804688 52.507812 C 34.980469 48.304688 34.449219 43.898438 32.308594 40.09375 C 30.1875 36.332031 26.699219 33.589844 22.484375 32.375 Z M 22.484375 32.375 "/>
<path style=" stroke:none;fill-rule:nonzero;fill:rgb(0%,0%,0%);fill-opacity:1;" d="M 68.136719 40.09375 C 66.019531 36.332031 62.527344 33.589844 58.3125 32.375 C 56.582031 31.878906 54.851562 31.625 53.167969 31.625 C 50.570312 31.625 48.402344 32.21875 46.71875 32.945312 C 48.339844 27.011719 52.234375 16.773438 59.992188 15.617188 C 60.710938 15.511719 61.300781 14.992188 61.496094 14.292969 L 63.191406 8.230469 C 63.335938 7.714844 63.25 7.167969 62.957031 6.722656 C 62.664062 6.277344 62.195312 5.980469 61.667969 5.90625 C 61.097656 5.828125 60.511719 5.789062 59.933594 5.789062 C 50.621094 5.789062 41.398438 15.507812 37.507812 29.425781 C 35.226562 37.589844 34.554688 49.863281 40.183594 57.589844 C 43.328125 61.914062 47.925781 64.222656 53.835938 64.453125 C 53.859375 64.453125 53.882812 64.453125 53.90625 64.453125 C 61.199219 64.453125 67.667969 59.542969 69.636719 52.511719 C 70.808594 48.304688 70.277344 43.898438 68.136719 40.09375 Z M 68.136719 40.09375 "/>
</g>
</svg>
